# xmcd
#
# Track frame offsets:
#	183
#	13893
#	24318
#	38450
#	54028
#	67595
#	83325
#	97303
#	117615
#	129998
#	143858
#	155780
#	186533
#
# Disc length: 2633 seconds
#
# Revision: 1
# Processed by: cddbd v1.5.2PL0 Copyright (c) Steve Scherf et al.
# Submitted via: EZCDAudioConverter 9.1.1.1
#
DISCID=a50a470d
DTITLE=Hot Jazz Standard - Jazz Me Blues
DYEAR=1900
DGENRE=Contemporary Jazz
TTITLE0=The "In" Crowd
TTITLE1=The Jazz Me Blues
TTITLE2=Stand By Me
TTITLE3=Take Five
TTITLE4=Muskrat Rambler
TTITLE5=At The Jazz Band Ball
TTITLE6=Anvil Chorus
TTITLE7=Luckenbach Texas
TTITLE8=Swinging Gently
TTITLE9=G.I.Blues
TTITLE10=Chattanooga Choo Choo
TTITLE11=Standing Tall
TTITLE12=When The Saints Go Marching In
EXTD=
EXTT0=
EXTT1=
EXTT2=
EXTT3=
EXTT4=
EXTT5=
EXTT6=
EXTT7=
EXTT8=
EXTT9=
EXTT10=
EXTT11=
EXTT12=
PLAYORDER=
